<svg width="397" height="87" viewBox="0 0 397 87" fill="none" xmlns="http://www.w3.org/2000/svg">
<rect x="42.3564" y="10.9395" width="25.0992" height="25.0992" rx="5" transform="rotate(-14.69 42.3564 10.9395)" fill="white"/>
<rect x="16.459" y="17.7287" width="25.0992" height="64.3805" rx="5" transform="rotate(-14.69 16.459 17.7287)" fill="white"/>
<rect y="62.2242" width="25.0992" height="25.0992" rx="5" transform="rotate(-14.69 0 62.2242)" fill="white"/>
<path d="M102.091 34.7273V44.1591H74.8274V34.7273H102.091ZM81.017 23.8807H93.5732V66.0881C93.5732 67.2474 93.75 68.1513 94.1037 68.7997C94.4574 69.4285 94.9486 69.8706 95.5774 70.1261C96.2259 70.3815 96.9725 70.5092 97.8175 70.5092C98.407 70.5092 98.9964 70.4601 99.5859 70.3619C100.175 70.244 100.627 70.1555 100.942 70.0966L102.917 79.44C102.288 79.6365 101.404 79.8625 100.264 80.1179C99.1242 80.393 97.7389 80.56 96.108 80.619C93.0819 80.7369 90.4292 80.334 88.1499 79.4105C85.8902 78.487 84.1315 77.0526 82.8739 75.1072C81.6164 73.1619 80.9974 70.7057 81.017 67.7386V23.8807ZM110.27 80V34.7273H122.443V42.6264H122.915C123.74 39.8165 125.126 37.6944 127.071 36.2599C129.016 34.8059 131.256 34.0788 133.791 34.0788C134.42 34.0788 135.098 34.1181 135.825 34.1967C136.552 34.2753 137.19 34.3834 137.741 34.5209V45.6623C137.151 45.4854 136.336 45.3282 135.294 45.1907C134.253 45.0531 133.3 44.9844 132.435 44.9844C130.588 44.9844 128.938 45.3872 127.483 46.1928C126.049 46.9788 124.909 48.0792 124.064 49.494C123.239 50.9087 122.827 52.5397 122.827 54.3867V80H110.27ZM162.757 80.8842C158.1 80.8842 154.092 79.9411 150.731 78.0547C147.391 76.1487 144.817 73.4567 143.009 69.9787C141.201 66.4811 140.297 62.3448 140.297 57.57C140.297 52.913 141.201 48.8259 143.009 45.3086C144.817 41.7913 147.362 39.0502 150.643 37.0852C153.944 35.1203 157.815 34.1378 162.256 34.1378C165.243 34.1378 168.023 34.6192 170.597 35.582C173.191 36.5252 175.451 37.9498 177.376 39.8558C179.322 41.7618 180.835 44.1591 181.915 47.0476C182.996 49.9164 183.536 53.2765 183.536 57.1278V60.5763H145.308V52.7951H171.717C171.717 50.9873 171.324 49.3859 170.538 47.9908C169.752 46.5956 168.662 45.5051 167.267 44.7191C165.891 43.9135 164.29 43.5107 162.462 43.5107C160.556 43.5107 158.866 43.9528 157.393 44.837C155.939 45.7016 154.799 46.8707 153.974 48.3445C153.148 49.7985 152.726 51.4196 152.706 53.2077V60.6058C152.706 62.8459 153.119 64.7814 153.944 66.4123C154.789 68.0432 155.978 69.3008 157.511 70.185C159.043 71.0692 160.861 71.5114 162.963 71.5114C164.358 71.5114 165.636 71.3149 166.795 70.9219C167.954 70.5289 168.947 69.9394 169.772 69.1534C170.597 68.3674 171.226 67.4046 171.658 66.2649L183.271 67.0312C182.682 69.8215 181.473 72.258 179.646 74.3409C177.838 76.4041 175.5 78.0154 172.631 79.1747C169.782 80.3144 166.49 80.8842 162.757 80.8842ZM204.64 80.8548C201.752 80.8548 199.178 80.3537 196.918 79.3516C194.658 78.3298 192.87 76.8266 191.554 74.842C190.257 72.8377 189.608 70.3422 189.608 67.3555C189.608 64.8403 190.07 62.728 190.994 61.0185C191.917 59.3089 193.175 57.9335 194.766 56.892C196.358 55.8506 198.166 55.0646 200.19 54.5341C202.233 54.0036 204.375 53.6302 206.615 53.4141C209.248 53.139 211.37 52.8835 212.981 52.6477C214.593 52.3923 215.762 52.0189 216.489 51.5277C217.216 51.0365 217.579 50.3094 217.579 49.3466V49.1697C217.579 47.303 216.99 45.8588 215.811 44.837C214.652 43.8152 213.001 43.3043 210.859 43.3043C208.6 43.3043 206.802 43.8054 205.465 44.8075C204.129 45.79 203.245 47.0279 202.813 48.5213L191.2 47.5781C191.789 44.8272 192.949 42.4496 194.678 40.4453C196.407 38.4214 198.637 36.8691 201.369 35.7883C204.119 34.688 207.303 34.1378 210.918 34.1378C213.433 34.1378 215.84 34.4325 218.139 35.022C220.458 35.6115 222.512 36.5252 224.3 37.7631C226.107 39.0011 227.532 40.5927 228.573 42.538C229.615 44.4637 230.136 46.7725 230.136 49.4645V80H218.228V73.7219H217.874C217.147 75.1367 216.175 76.3845 214.956 77.4652C213.738 78.5263 212.274 79.3614 210.565 79.9705C208.855 80.56 206.88 80.8548 204.64 80.8548ZM208.236 72.1893C210.083 72.1893 211.714 71.8258 213.129 71.0987C214.544 70.352 215.654 69.3499 216.459 68.0923C217.265 66.8348 217.668 65.4102 217.668 63.8185V59.0142C217.275 59.2696 216.735 59.5054 216.047 59.7216C215.379 59.9181 214.622 60.1048 213.777 60.2816C212.932 60.4388 212.087 60.5862 211.242 60.7237C210.398 60.8416 209.631 60.9497 208.943 61.0479C207.47 61.2641 206.183 61.608 205.082 62.0795C203.982 62.5511 203.127 63.1897 202.518 63.9954C201.909 64.7814 201.604 65.7638 201.604 66.9428C201.604 68.6523 202.223 69.959 203.461 70.8629C204.719 71.7472 206.31 72.1893 208.236 72.1893ZM239.877 80V34.7273H251.843V42.7148H252.374C253.317 40.0621 254.889 37.9695 257.09 36.4368C259.291 34.9041 261.924 34.1378 264.989 34.1378C268.094 34.1378 270.737 34.9139 272.918 36.4663C275.099 37.9989 276.553 40.0818 277.28 42.7148H277.752C278.675 40.1211 280.345 38.0481 282.762 36.4957C285.199 34.9238 288.077 34.1378 291.398 34.1378C295.623 34.1378 299.052 35.4838 301.685 38.1758C304.337 40.8481 305.664 44.6405 305.664 49.5529V80H293.137V52.0288C293.137 49.5136 292.469 47.6272 291.133 46.3697C289.797 45.1121 288.127 44.4833 286.122 44.4833C283.843 44.4833 282.065 45.2103 280.787 46.6644C279.51 48.0988 278.872 49.995 278.872 52.353V80H266.699V51.7635C266.699 49.5431 266.06 47.7746 264.783 46.4581C263.525 45.1416 261.865 44.4833 259.802 44.4833C258.406 44.4833 257.149 44.837 256.029 45.5444C254.928 46.2321 254.054 47.2048 253.406 48.4624C252.757 49.7003 252.433 51.1544 252.433 52.8246V80H239.877ZM336.214 80.8842C331.557 80.8842 327.549 79.9411 324.188 78.0547C320.848 76.1487 318.274 73.4567 316.466 69.9787C314.658 66.4811 313.755 62.3448 313.755 57.57C313.755 52.913 314.658 48.8259 316.466 45.3086C318.274 41.7913 320.819 39.0502 324.1 37.0852C327.401 35.1203 331.272 34.1378 335.713 34.1378C338.7 34.1378 341.48 34.6192 344.054 35.582C346.648 36.5252 348.908 37.9498 350.833 39.8558C352.779 41.7618 354.292 44.1591 355.372 47.0476C356.453 49.9164 356.994 53.2765 356.994 57.1278V60.5763H318.765V52.7951H345.174C345.174 50.9873 344.781 49.3859 343.995 47.9908C343.209 46.5956 342.119 45.5051 340.724 44.7191C339.348 43.9135 337.747 43.5107 335.919 43.5107C334.013 43.5107 332.323 43.9528 330.85 44.837C329.396 45.7016 328.256 46.8707 327.431 48.3445C326.605 49.7985 326.183 51.4196 326.163 53.2077V60.6058C326.163 62.8459 326.576 64.7814 327.401 66.4123C328.246 68.0432 329.435 69.3008 330.968 70.185C332.5 71.0692 334.318 71.5114 336.42 71.5114C337.815 71.5114 339.093 71.3149 340.252 70.9219C341.411 70.5289 342.404 69.9394 343.229 69.1534C344.054 68.3674 344.683 67.4046 345.115 66.2649L356.728 67.0312C356.139 69.8215 354.93 72.258 353.103 74.3409C351.295 76.4041 348.957 78.0154 346.088 79.1747C343.239 80.3144 339.947 80.8842 336.214 80.8842ZM365.187 80V34.7273H377.36V42.6264H377.832C378.657 39.8165 380.043 37.6944 381.988 36.2599C383.933 34.8059 386.173 34.0788 388.708 34.0788C389.337 34.0788 390.015 34.1181 390.742 34.1967C391.469 34.2753 392.107 34.3834 392.658 34.5209V45.6623C392.068 45.4854 391.253 45.3282 390.211 45.1907C389.17 45.0531 388.217 44.9844 387.352 44.9844C385.505 44.9844 383.855 45.3872 382.4 46.1928C380.966 46.9788 379.826 48.0792 378.981 49.494C378.156 50.9087 377.744 52.5397 377.744 54.3867V80H365.187Z" fill="white"/>
</svg>
